<?xml version="1.0" encoding="UTF-8"?><svg id="Layer_1" xmlns="http://www.w3.org/2000/svg" viewBox="0 0 22 22"><circle cx="11" cy="11" r="11" fill="#f7f7f7"/><path d="M5.01,18.01c-.9,0-1.73-.48-2.17-1.26-.45-.78-.44-1.71,.01-2.48L8.84,4.04c.45-.77,1.26-1.24,2.16-1.24s1.71,.46,2.16,1.24l5.99,10.24c.45,.77,.46,1.7,.01,2.48-.44,.77-1.28,1.26-2.17,1.26H5.01Z" fill="#465fa9"/><path d="M10.04,4.74c.43-.73,1.5-.73,1.92,0l2.99,5.12,2.99,5.12c.43,.73-.11,1.64-.96,1.64H5.01c-.86,0-1.39-.91-.96-1.64l2.99-5.12,2.99-5.12Z" fill="#465fa9"/></svg>
